<svg xmlns="http://www.w3.org/2000/svg" viewBox="0 0 119.7 40"><path d="M25 19.9c0-1.8.9-3.4 2.5-4.3-1-1.4-2.5-2.2-4.1-2.2-1.8-.2-3.4 1-4.3 1s-2.3-1-3.8-1c-1.9.1-3.7 1.1-4.7 2.8-2 3.5-.5 8.6 1.4 11.4 1 1.4 2.1 2.9 3.6 2.9s2-.9 3.7-.9 2.2.9 3.7.9 2.5-1.4 3.5-2.8c.7-1 1.2-2 1.5-3.2-1.8-.8-3-2.6-3-4.6zM22.2 11.5c.8-1 1.3-2.3 1.2-3.6-1.4.1-2.5.7-3.4 1.7-.8 1-1.3 2.2-1.2 3.5 1.3 0 2.5-.6 3.4-1.6zM37.8 8.7c1.5-.1 2.7 1 2.8 2.4v.5c0 1.9-1 3-2.8 3h-2.2v-6l2.2.1zm-1.2 5.2h1.1c1 .1 1.9-.7 2-1.7v-.4c.1-1-.6-2-1.6-2.1h-1.5v4.2zM41.7 12.4c-.1-1.2.8-2.2 1.9-2.3 1.2-.1 2.2.8 2.3 1.9v.4c0 1.2-.9 2.2-2.1 2.2-1.1 0-2-.7-2.2-1.8.1-.1.1-.2.1-.4zm3.3 0c0-1-.4-1.5-1.2-1.5s-1.2.6-1.2 1.5.4 1.6 1.2 1.6 1.2-.6 1.2-1.6zM51.6 14.7h-.9l-.9-3.3h-.1l-.9 3.3h-.9l-1.2-4.5h.9l.8 3.4h.1l.9-3.4h.8l.9 3.4h.1l.8-3.4h.9l-1.3 4.5zM53.8 10.2h.9v.7h.1c.2-.5.8-.9 1.3-.8.8-.1 1.5.5 1.6 1.3V14.6h-.9V12c0-.7-.3-1.1-1-1.1-.6 0-1 .4-1.1.9v2.9h-.9v-4.5zM59.1 8.4h.9v6.3h-.9V8.4zM61.2 12.4c-.1-1.2.8-2.2 1.9-2.3s2.2.8 2.3 1.9v.4c0 1.2-.9 2.2-2.1 2.2-1.1 0-2-.7-2.2-1.8.1-.1.1-.2.1-.4zm3.4 0c0-1-.4-1.5-1.2-1.5s-1.2.6-1.2 1.5.4 1.6 1.2 1.6 1.2-.6 1.2-1.6zM66.4 13.4c0-.8.6-1.3 1.7-1.3l1.2-.1v-.4c0-.5-.3-.7-.9-.7s-.8.2-.9.5h-.9c.1-.8.8-1.3 1.8-1.3s1.8.6 1.8 1.5v3.1h-.9v-.6h-.1c-.3.5-.8.7-1.3.7-.7.1-1.4-.5-1.5-1.2v-.2zm2.9-.4v-.4l-1.1.1c-.6 0-.9.3-.9.6s.4.6.8.6c.6.1 1.1-.3 1.2-.9zM71.3 12.4c0-1.4.7-2.3 1.9-2.3.6 0 1.1.3 1.4.8h.1V8.4h.9v6.3h-.8V14h-.1c-.3.5-.8.8-1.4.8-1.2 0-2-.9-2-2.4zm1 0c0 1 .4 1.5 1.2 1.5s1.2-.6 1.2-1.5-.5-1.5-1.2-1.5-1.2.6-1.2 1.5zM79.2 12.4c-.1-1.2.8-2.2 1.9-2.3 1.2-.1 2.2.8 2.3 1.9v.4c0 1.2-.9 2.2-2.1 2.2-1.1 0-2-.7-2.2-1.8.1-.1.1-.2.1-.4zm3.4 0c0-1-.4-1.5-1.2-1.5s-1.2.6-1.2 1.5.4 1.6 1.2 1.6 1.2-.6 1.2-1.6zM84.7 10.2h.8v.7h.1c.2-.5.8-.9 1.3-.8.8-.1 1.5.5 1.6 1.4V14.7h-.9V12c0-.7-.3-1.1-1-1.1-.6 0-1 .4-1.1.9V14.6h-.9l.1-4.4zM93.5 9.1v1.1h1v.8h-1v2.3c0 .5.2.7.6.7h.3v.7h-.5c-1 0-1.4-.4-1.4-1.2V11h-.7v-.7h.7V9.1h1zM95.7 8.4h.9v2.5h.1c.2-.5.8-.8 1.3-.8.8 0 1.5.6 1.6 1.4V14.7h-.9V12c0-.7-.3-1.1-1-1.1-.6-.1-1.1.4-1.1 1v2.8h-.8V8.4zM104.8 13.5c-.3.9-1.1 1.4-2 1.3-1.1.1-2-.8-2.1-1.9v-.1-.3c-.2-1.1.6-2.2 1.8-2.3h.3c1.2 0 2 .9 2 2.3v.3h-3.2v.1c0 .7.5 1.2 1.1 1.2h.1c.4 0 .9-.2 1.1-.6h.9zm-3.2-1.5h2.3c0-.6-.4-1.1-1-1.2h-.1c-.6 0-1.2.6-1.2 1.2zM42.3 27.1h-4.7l-1.1 3.4h-2L39 18.1h2l4.5 12.4h-2l-1.2-3.4zm-4.2-1.5h3.8L40 20.1l-1.9 5.5zM55.2 26c0 2.8-1.5 4.6-3.8 4.6-1.2.1-2.3-.6-2.9-1.6v4.5h-1.9v-12h1.8V23c.6-1 1.7-1.6 2.9-1.6 2.3 0 3.9 1.8 3.9 4.6zm-2 0c0-1.8-1-3-2.4-3s-2.4 1.2-2.4 3 1 3 2.4 3 2.4-1.2 2.4-3zM65.1 26c0 2.8-1.5 4.6-3.8 4.6-1.2.1-2.3-.6-2.9-1.6v4.5h-1.9v-12h1.8V23c.6-1 1.7-1.6 2.9-1.6 2.4 0 3.9 1.8 3.9 4.6zm-1.9 0c0-1.8-.9-3-2.4-3s-2.4 1.2-2.4 3 .9 3 2.4 3 2.4-1.2 2.4-3zM71.7 27c.1 1.2 1.3 2 3 2s2.7-.8 2.7-1.9-.7-1.5-2.3-1.9l-1.6-.4c-2.3-.5-3.3-1.6-3.3-3.3 0-2.1 1.9-3.6 4.5-3.6s4.4 1.5 4.5 3.6h-1.9c-.1-1.2-1.1-2-2.6-2s-2.5.8-2.5 1.9c0 .9.7 1.4 2.3 1.8l1.4.3c2.6.6 3.6 1.6 3.6 3.4 0 2.3-1.8 3.8-4.8 3.8-2.8 0-4.6-1.4-4.7-3.7h1.7zM83.3 19.3v2.1H85v1.5h-1.7v5c0 .8.3 1.1 1.1 1.1h.6v1.5c-.3.1-.7.1-1 .1-1.8 0-2.6-.7-2.6-2.5v-5.2h-1.3v-1.5h1.3v-2.1h1.9zM86.1 26c0-2.9 1.7-4.6 4.3-4.6s4.3 1.8 4.3 4.6-1.7 4.6-4.3 4.6-4.3-1.8-4.3-4.6zm6.7 0c0-2-.9-3.1-2.4-3.1S88 24 88 26s.9 3.1 2.4 3.1 2.4-1.1 2.4-3.1zM96.2 21.4H98V23c.2-1 1.2-1.7 2.2-1.6.2 0 .4 0 .6.1v1.7c-.3-.1-.5-.2-.8-.2-1-.1-1.9.7-2 1.8v5.7h-1.8v-9.1zM109.4 27.8c-.2 1.6-1.8 2.8-3.9 2.8-2.6 0-4.3-1.8-4.3-4.6s1.6-4.7 4.2-4.7 4.1 1.7 4.1 4.5v.6h-6.4v.1c-.1 1.3.8 2.4 2.1 2.5h.3c.9.1 1.7-.4 2.1-1.3l1.8.1zm-6.3-2.7h4.5c.1-1.2-.9-2.2-2.1-2.3h-.2c-1.2 0-2.2 1-2.2 2.3z"/></svg>