<svg id="Layer_1" data-name="Layer 1" xmlns="http://www.w3.org/2000/svg" viewBox="0 0 32 32"><title>Web_Icons</title><path d="M5,29.66a1.5,1.5,0,0,1-1.5-1.5c0-6.48,7.14-8.32,10.91-8.39h3.85c3.8.07,10.94,1.91,10.94,8.39a1.5,1.5,0,0,1-1.5,1.5Z" style="fill:#fff"/><path d="M18.25,21.27s9.44.17,9.44,6.88H5c0-6.71,9.44-6.88,9.44-6.88h3.82m0-3H14.37C10.09,18.35,2,20.51,2,28.15a3,3,0,0,0,3,3h22.7a3,3,0,0,0,3-3c0-7.64-8.1-9.8-12.39-9.88Z" style="fill:#25274d"/><ellipse cx="16.34" cy="10.37" rx="7.2" ry="8.73" style="fill:#fff"/><path d="M16.34,3.14c3.15,0,5.7,3.24,5.7,7.23s-2.55,7.23-5.7,7.23-5.71-3.24-5.71-7.23,2.56-7.23,5.71-7.23m0-3c-4.8,0-8.71,4.59-8.71,10.23S11.54,20.6,16.34,20.6,25,16,25,10.37,21.14.14,16.34.14Z" style="fill:#25274d"/><path d="M16.34,21.27H14.43S5,21.44,5,28.15H16.34Z" style="fill:#cccfdb"/><path d="M16,15c-3.6-2.16-4.07-7.42-1.83-11.32a7.45,7.45,0,0,0-3.54,6.69c0,4,2.56,7.23,5.71,7.23a5.12,5.12,0,0,0,3.85-1.91A7.14,7.14,0,0,1,16,15Z" style="fill:#cccfdb"/></svg>