<svg xmlns="http://www.w3.org/2000/svg" viewBox="0 0 1000 1000"><path d="M893.1 338c42 100 66.3 193.6 72.9 280.5 6.5 87-7.6 137.7-42.4 152.2-20.3 8.7-42.4 7.6-66.3-3.3-23.9-10.9-47.5-25.4-70.7-43.5s-59.1-33-107.7-44.6c-48.6-11.6-102.6-14.5-162-8.7-20.3 2.9-35.5 9.8-45.7 20.7-10.1 10.9-12.3 24.3-6.5 40.2 15.9 40.6 32.6 79.7 50 117.4 2.9 7.3 11.6 15.2 26.1 23.9 14.5 8.7 23.2 15.9 26.1 21.7 10.1 24.6 2.2 41.3-23.9 50-36.2 15.9-73.2 30.4-110.9 43.5-21.7 7.3-41.3-8-58.7-45.7-23.2-55.1-44.2-102.9-63.1-143.5-4.3-8.7-16.7-14.9-37-18.5-20.3-3.6-37-14.9-50-33.7-21.7 7.3-35.5 12.3-41.3 15.2-24.6 8.7-51.5 4.3-80.5-13-29-17.4-48.6-39.1-58.7-65.2-11.6-23.2-13.4-51.8-5.4-85.9 8-34.1 23.6-56.2 46.8-66.3 91.3-37.7 168.5-76.8 231.6-117.4s108-77.9 134.8-112c26.8-34.1 48.2-67.4 64.2-100 15.9-32.6 25-60.9 27.2-84.8 2.2-23.9 7.6-45.3 16.3-64.2 8.7-18.8 21.7-31.9 39.1-39.1C632.2-.6 679.3 24.8 738.8 90c59.4 65.3 110.8 148 154.3 248m-30.4 326.2c5.8-2.9 9.4-16.7 10.9-41.3 1.5-24.6-2.5-60.2-12-106.6-9.4-46.4-24.3-92.8-44.6-139.2-20.3-47.8-44.6-92.4-72.9-133.7-28.3-41.3-52.6-71.8-72.9-91.3-20.3-19.6-33.3-27.9-39.1-25-5.8 2.9-9.4 18.1-10.9 45.7-1.4 27.5 2.2 65.6 10.9 114.2 8.7 48.6 23.2 96.8 43.5 144.6s44.9 91 73.9 129.4c29 38.4 53.6 66 73.9 82.6 20.4 16.6 33.5 23.5 39.3 20.6"/></svg>