<svg xmlns="http://www.w3.org/2000/svg" data-name="Layer 1" viewBox="0 0 249.09 639.21"><defs/><path d="M126.56 202.75c2.49-.48 5.09-1.69 7.44-1.31 28 4.5 44.4 22.44 50.55 50 4.75 21.31 12.27 42.12 19.86 62.67 11.39 30.79 25.25 60.5 43.43 88a21.26 21.26 0 011.25 2.59c-6.37 3.71-19-.26-23.89-6.81-8.73-11.75-17.91-23.23-25.77-35.55-7.68-12-14-25-20.85-37.51a15.08 15.08 0 00-3-4.05c-16 97.67-10.46 194.15 14.44 290-8.55 4.73-20.82 1-27.28-9.14C154 587.9 148.5 572.73 144 557.2c-8.75-30.17-13.74-61-16.13-92.32-1.12-14.77-1.63-29.6-2.43-44.4-.06-1.13-.2-2.25-.33-3.71-.72.46-1.22.61-1.44.94-24.42 36.35-49.13 72.52-67.5 112.5-15.53 33.8-25.29 69-26 106.4 0 .65-.14 1.3-.22 1.92-11.91 2.63-21.75-2.45-26-13.73-4.95-13-4.41-26.52-2.41-39.95 6-40.41 22.37-77.16 40.82-113.08 22.19-43.24 49.56-83.19 77.79-122.64 13.25-18.51 25.4-37.87 37.08-57.43 4.6-7.7 7.57-16.75 9.53-25.57 4.75-21.36-3.37-38.21-23.72-51.59-5.27-3.46-10.78-6.53-16.18-9.79z"/><path d="M43.62 407.88c-5.23-7.07-6.33-14.27-6.44-21.48-.44-27.71 13.06-47.62 35.39-62.66C79.55 319 86.51 314 92.38 308c6.37-6.48 6.17-13.48.6-20.79a134.39 134.39 0 00-12-13.34c-11-11-18-23.52-18.09-39.73-.11-13.4-6.6-25.24-11.63-37.39-7.62-18.41-16.15-36.6-21.89-55.61-9.3-30.78-7.91-62.27-.86-93.41A188 188 0 0138.55 16C42.38 7 49.62.86 60.67 0c-2.5 10.57-5.13 20.63-7.24 30.79-5.69 27.36-9 54.87-4.66 82.82a143.78 143.78 0 0014.42 43.89c6.76 13.17 14 26.12 20.44 39.43A95.4 95.4 0 0193 235c.41 10 5.16 18.09 11 25.73 4.45 5.82 9.23 11.41 13.32 17.47 9.19 13.64 8.26 26.9-3.6 38.32-7.51 7.22-16.23 13.22-24.63 19.45-8.15 6.05-17 11.2-24.8 17.65-15.2 12.6-22.68 28.83-20.48 48.91.11 1 .12 2 .15 3-.03.3-.12.63-.34 2.35z"/><path d="M124.48 196.37c1-7.76 2-14.32 2.64-20.91a130.72 130.72 0 00.75-14.93c-.14-8.69-4.81-13-13.48-11.67-6 .91-11.87 3.07-17.75 4.82-6 1.8-9.19.84-13.12-4.61 10.5-10.69 22-19.84 37.57-21.61 19.76-2.26 34.56 14.94 30.38 35-3.18 15.29-13.14 25.33-26.99 33.91z"/></svg>