<svg xmlns="http://www.w3.org/2000/svg" data-name="Layer 1" viewBox="0 0 1200 475.18"><defs/><path d="M0 442c2.16-10.23 3.68-20.65 6.58-30.66 10.32-35.64 27.38-68.22 47.34-99.23 17.75-27.56 36.68-54.37 54.83-81.69 6.05-9.11 12.18-18.24 14.67-29.28 3.89-17.23-.26-28.81-14.72-39-4.6-3.26-9.36-6.3-14.29-9.61 1.75-3.68 4.73-2.69 7.3-2.15 19.07 4 30.65 15.7 35.35 34.44 9.2 36.67 22.57 71.67 41.69 104.37 2.26 3.86 4.71 7.61 7.09 11.44-6.62 3.14-13.26 1.45-18.32-5.76-9.54-13.6-18.61-27.54-27.71-41.45-2.8-4.29-5-8.95-7.6-13.58-5.08 8.27-9 77.72-6.85 107.07 2.67 35.92 6.41 71.62 16.93 106.17a13.54 13.54 0 01-20-5.41 282.4 282.4 0 01-15-34.72c-7.29-21.4-9.76-43.8-11.28-66.27-.76-11.3-1.38-22.61-2.09-33.92a18.17 18.17 0 00-.57-2.57 7.41 7.41 0 00-1.4 1.08c-18.82 28.07-38 55.91-51.61 87.08C29.78 422.51 23 447.56 23 474.13c-8.1 2.91-16-.34-19.25-8.32-1.67-4.09-2.51-8.53-3.72-12.81zM1200 347c-9.31-.11-18.63-.39-27.94-.25-3.39.06-5.13-.86-6-4.24-1.29-4.81-3.28-9.43-4.6-14.23-.95-3.46-2.77-4.92-6.36-4.88-11.33.12-22.66.1-34 0-3.14 0-4.86 1.17-5.75 4.24-1.47 5.11-3.35 10.1-4.9 15.19-.9 3-2.47 4.29-5.75 4.2-8.28-.2-16.57-.06-25.45-.06 2.09-5.89 3.93-11.21 5.86-16.48q16.57-45.21 33.22-90.38c1.14-3.11 2.06-6.61 4.16-9 2.49-2.82 5.92-5.93 9.37-6.56a67 67 0 0118.88-.26c1.91.2 4.14 3.52 5.06 5.87 8.2 21.1 16.2 42.27 24.2 63.42q9.12 24 18.21 48.05A27.57 27.57 0 001200 345zm-62.2-89.81l-13.19 41.95h26.75c-4.48-13.87-8.79-27.2-13.56-41.95z"/><path d="M45 0c-3.1 16.32-6.9 32.55-9.15 49a114.87 114.87 0 0013.42 72.37c7 12.81 15 25.23 18.16 39.8.6 2.75 1.52 5.54 1.52 8.32 0 10.73 4.11 19.64 11 27.67a83.94 83.94 0 019 12.53c5.08 8.84 4.42 16.91-2.45 24.37-4.23 4.6-9.4 8.4-14.4 12.23-7.53 5.77-15.37 11.13-22.92 16.87-12.66 9.62-18.86 22.1-16.35 38.26.07.46-.1 1-1 1.91a36.56 36.56 0 01-2.7-5.61c-5.56-18.78 2.85-40.55 20.56-53.36 4.58-3.31 9.43-6.28 13.85-9.8 10.67-8.5 11.1-14.47 2-24.47-2.68-2.95-5.56-5.74-8.28-8.66a39.82 39.82 0 01-10.66-24.09c-.84-8.11-3.39-16.22-6.25-23.93-6.06-16.35-14.14-32.06-19-48.74-9.13-31.36-4.82-62.27 7.11-92.32C31 6 36.28 2.8 42 0zM970.89 223.2c21.63 1 42.93.41 63.76 3.27 22.69 3.13 33.38 21 28.31 42.68-2.21 9.46-7.83 16.41-16.37 21-2.77 1.48-5.63 2.79-8.13 4q18.74 25.85 37.38 51.59l-1.07 1.26c-8.56 0-17.18.67-25.65-.19-8.24-.83-13.29-7-17.35-13.77-5.61-9.44-11.09-19-17-28.22-3.46-5.41-7.15-6.47-14.29-5.2v46.62h-29.59zm30.11 54.13h14.45c1.66 0 3.33 0 5-.18 8-.83 13.2-5.85 13.72-13.23.64-9.22-2.84-14.62-11.76-16.08-6.92-1.14-14.08-.9-21.39-1.29zM538.93 255.06c-8.49-5-17-8-26.38-8.47-19-.9-33.23 10.1-36.74 28.8a53.1 53.1 0 001.9 28.07c6.65 18.64 23.9 26.44 44.83 18.71a5 5 0 002.72-3.61c.3-5.76.13-11.55.13-17.83-4.53 0-8.5.14-12.46 0-7.33-.31-9.56-2.49-9.87-9.68-.19-4.31 0-8.64 0-13.43 1.6-.12 3-.32 4.45-.33 13.67 0 27.33.12 41-.09 3.8-.06 5.37.93 5.34 4.94-.14 17 0 34-.19 51 0 1.94-1.33 4.88-2.87 5.63-25.81 12.58-52.13 14.85-78.23 1.39-19.86-10.23-28-28.48-29.37-49.67-2.82-41.94 28.43-71.64 71.62-68.95a76.71 76.71 0 0128.42 7c5.92 2.8 6.72 5.25 3.81 11.07-2.63 5.11-5.37 10.21-8.11 15.45zM318.08 347.12c5.4-14.68 10.48-28.56 15.61-42.42q12-32.54 24.12-65a77.83 77.83 0 013.75-8.7 12.55 12.55 0 0110.84-7c19.6-1.42 19.6-1.42 26.6 16.82q18.76 49.47 37.54 98.92c.81 2.14 1.35 4.38 2.2 7.17-10.08 0-19.55.17-29-.17-1.59-.06-3.81-2.05-4.51-3.67-2.11-4.87-3.68-10-5.34-15-.95-2.93-2.65-4.24-5.85-4.2-11.33.13-22.67.16-34 0-3.5-.06-5.08 1.41-6 4.59a124.34 124.34 0 01-4.77 14.71c-.71 1.7-3.08 3.74-4.78 3.82-8.49.34-16.95.13-26.41.13zm72.15-47.46c-4.49-13.92-8.85-27.43-13.67-42.35l-13 42.35zM744.64 346.57H733.2c-5.16 0-10.32 0-15.48.11-3.84.09-6.24-1.37-7.31-5.26-1.29-4.64-3.07-9.14-4.39-13.77-.91-3.18-2.58-4.63-6-4.58-11.32.15-22.65.13-34 0-3.41 0-5.12 1.44-6.05 4.63a140.5 140.5 0 01-4.97 14.65c-.69 1.64-2.78 3.73-4.31 3.8-8.6.36-17.22.17-26.3.17 1.91-5.27 3.79-10.56 5.73-15.82L664 238.26c4.59-12.51 7.5-14.78 21-14.44 16.18.41 12.19-2.36 17.82 12.27 13.38 34.75 26.46 69.62 39.66 104.45.63 1.66 1.2 3.36 2.16 6.03zm-48.25-46.79c-4.45-13.87-8.8-27.4-13.14-40.93l-1 .23-12.77 40.7zM294.16 253.06c-5.56-2.06-10.47-4.06-15.48-5.78-7.53-2.51-15.27-2.71-22.35.94-2.81 1.45-5.84 5-6.21 8-.33 2.66 2.1 7 4.57 8.42 6.38 3.78 13.41 6.49 20.27 9.43 5.19 2.22 10.66 3.82 15.74 6.24 24.83 11.83 21.6 49.38 1.85 60.1-22.69 12.31-45.25 11.33-67.68-.63-3.76-2-5.15-5.33-3.17-9.27 2.51-5 5.4-9.82 8.21-14.86 4.44 2.06 8.31 3.93 12.23 5.67a41.19 41.19 0 0027.77 2.57c5.7-1.48 9.24-5.07 9.59-9.59.42-5.3-2.72-8.43-7.1-10.35-9.58-4.21-19.28-8.13-28.89-12.28-19-8.2-27.78-29.95-19.55-48.2 5.49-12.15 16.09-17.34 28.12-20.13 15.84-3.68 31.05-.94 45.72 5.64 4.35 1.95 5.48 5.23 3.61 9.38-2.16 4.8-4.67 9.49-7.25 14.7zM789.22 301.88v44.8h-29.76v-122.1h81.46v24h-51.54v28.55h47.75c0 7.05.29 13.49-.11 19.89-.25 4.1-4 4.55-7.17 4.61-10.32.2-20.64.21-31 .28-2.95-.02-5.94-.03-9.63-.03zM917.91 346.79h-30.53V249h-33.75v-24h102.44c-.38 6.43-.39 12.75-1.37 18.91-.26 1.67-3.35 3.91-5.32 4.1-6.94.7-13.94.65-20.93.82-3.3.08-6.61 0-10.54 0z"/><path d="M62.41 111.15c7.33-8 15.63-14.07 26.47-15.9 14.11-2.38 25.63 7.93 24.44 22.23-.93 11.13-6.76 19.6-15.75 26a12.83 12.83 0 01-2.66 1.36 4.2 4.2 0 01-1.47 0c.65-7.77 1.48-15.52 1.89-23.29.48-8.94-3-11.73-11.89-9.78-3.89.86-7.72 2-11.6 2.92-3.6.85-7.01.81-9.43-3.54zM598.31 301.17a15.71 15.71 0 11-.5-31.41 16 16 0 0116 15.19c.3 8.47-7.05 16.14-15.5 16.22z"/></svg>